
  <svg
    xmlns="http://www.w3.org/2000/svg"
    width="46"
    height="47"
    viewBox="0 0 46 47"
    fill="none"
  >
    <path
      d="M28.4162 1.11783C21.7043 3.6379 18.1328 10.9803 20.2572 17.8871C21.5812 22.1495 24.9987 25.2607 29.7709 26.5051C32.6651 27.2829 35.1898 27.034 38.3918 25.6962C39.2539 25.354 39.531 25.354 40.4854 25.8207C41.0704 26.1007 41.563 26.5362 41.563 26.8162C41.563 27.594 43.1948 27.3763 43.9953 26.5362L44.7035 25.7584L44.0569 24.9184C43.1332 23.7362 43.2256 22.1495 44.3648 19.8472C47.0742 14.3715 45.935 8.27357 41.4399 4.01124C38.8228 1.5534 36.8831 0.775602 32.9422 0.620043C30.6022 0.526707 29.6786 0.651154 28.4162 1.11783ZM36.4829 5.34905C38.4534 6.25129 40.2083 8.02467 41.1628 10.1092C41.8093 11.5403 41.9017 12.1003 41.8093 14.1537C41.6862 16.9538 41.0396 18.4783 39.3154 20.2205C37.4373 22.1184 35.7132 22.7717 32.6343 22.7717C30.5099 22.7717 29.7709 22.6473 28.6933 22.0561C25.4913 20.345 23.6748 17.6382 23.4593 14.3093C23.2745 11.727 24.0135 9.6736 25.7684 7.68244C28.6625 4.41569 32.5727 3.57567 36.4829 5.34905Z"
      fill="#002064"
    />
    <path
      d="M26.5392 13.0333C25.7079 13.8733 26.3545 15.1489 27.6168 15.1489C28.4789 15.1489 28.9407 14.2778 28.6021 13.3444C28.325 12.5978 27.155 12.4111 26.5392 13.0333Z"
      fill="#002064"
    />
    <path
      d="M30.2337 12.9403C29.9874 13.0958 29.8643 13.5936 29.9258 14.0914C30.0182 14.9003 30.1414 14.9937 31.0958 14.9937C31.9887 14.9937 32.2042 14.8692 32.2658 14.2781C32.4505 13.0025 31.3113 12.2558 30.2337 12.9403Z"
      fill="#002064"
    />
    <path
      d="M33.5587 13.1269C33.3432 13.4069 33.2509 13.9047 33.374 14.3714C33.5587 15.0559 33.7127 15.1803 34.5748 15.087C35.4061 14.9936 35.5908 14.8381 35.6524 14.0914C35.8063 12.7536 34.39 12.1002 33.5587 13.1269Z"
      fill="#002064"
    />
    <path
      d="M36.9449 13.2824C36.2059 14.6513 38.1148 15.8647 39.1001 14.6824C39.408 14.3091 39.408 14.0291 39.1617 13.438C38.7306 12.4735 37.4375 12.3802 36.9449 13.2824Z"
      fill="#002064"
    />
    <path
      d="M14.5005 3.94884C11.668 4.75775 8.3428 6.56224 6.34153 8.36673C0.0606387 14.0291 -1.78668 23.456 1.84638 31.2029C2.36979 32.2607 2.77004 33.3496 2.77004 33.5985C2.77004 33.8785 2.27742 36.2741 1.66165 38.9186C0.399314 44.581 0.399314 45.6077 1.66165 46.2299C2.52373 46.6344 2.77004 46.541 7.75781 43.9276L12.9919 41.1898L15.301 41.7498C18.5339 42.5276 23.0906 42.2787 25.9539 41.1898C28.6018 40.1631 31.9269 37.9852 33.7435 36.0874C35.0982 34.6874 37.5613 31.2029 37.5613 30.674C37.5613 30.5495 36.8223 30.6428 35.9603 30.8917C35.0674 31.1095 33.9282 31.3273 33.4356 31.3273C32.7582 31.3273 32.0193 31.8562 30.3259 33.474C27.7705 35.9319 25.1842 37.3008 22.1669 37.8608C19.8886 38.2964 18.0104 38.1097 14.9008 37.2075L12.7148 36.5541L9.57434 38.1719C7.81939 39.0431 6.31074 39.6964 6.21838 39.572C6.12601 39.4786 6.37232 37.7364 6.77257 35.7141L7.48071 32.0429L6.68021 30.954C4.55579 28.1539 3.53976 23.3627 4.27869 19.7537C4.74052 17.5447 6.09522 14.7758 7.54229 13.0646C8.92778 11.4157 11.8527 9.45565 14.1003 8.61562C15.7013 8.0245 15.9476 7.7756 17.0868 5.90889C17.7641 4.75775 18.3799 3.73106 18.4107 3.5755C18.5954 3.17104 16.5942 3.3266 14.5005 3.94884Z"
      fill="#002064"
    />
    <path
      d="M13.5152 14.9626C11.2676 16.5182 9.85132 19.4427 9.85132 22.5539C9.85132 25.4784 10.5595 27.4073 12.2836 29.1496C14.5312 31.3897 16.2246 32.1052 19.5498 32.1052C21.9821 32.1052 22.5055 31.9808 23.9218 31.2652C24.7838 30.7985 25.5843 30.3007 25.6767 30.1452C25.7383 30.0207 25.0301 29.4918 24.0757 28.994C19.8884 26.8162 16.1938 21.5272 15.3625 16.5493C15.147 15.2737 14.9007 14.2159 14.7775 14.2159C14.6851 14.2159 14.1309 14.5581 13.5152 14.9626Z"
      fill="#002064"
    />
  </svg>